<svg viewBox="0 0 45.026 45.026">
  <path d="M37.5216,0H7.5043A7.5043,7.5043,0,0,0,0,7.5043V37.5216A7.5043,7.5043,0,0,0,7.5043,45.026H37.5216a7.5044,7.5044,0,0,0,7.5044-7.5044V7.5043A7.5043,7.5043,0,0,0,37.5216,0Zm3.7522,37.5216a3.7522,3.7522,0,0,1-3.7522,3.7522H7.5043a3.7522,3.7522,0,0,1-3.7521-3.7522V7.5043A3.7521,3.7521,0,0,1,7.5043,3.7522H37.5216a3.7522,3.7522,0,0,1,3.7522,3.7521Z"/>
  <path d="M22.513,11.2565A11.2565,11.2565,0,1,0,33.77,22.513,11.2565,11.2565,0,0,0,22.513,11.2565Zm0,18.7608a7.5043,7.5043,0,1,1,7.5043-7.5043A7.5043,7.5043,0,0,1,22.513,30.0173Z"/>
  <circle cx="34.7075" cy="10.3185" r="2.8141"/>
</svg>