<?xml version="1.0" encoding="utf-8"?>
<!-- Generator: Adobe Illustrator 24.3.0, SVG Export Plug-In . SVG Version: 6.00 Build 0)  -->
<svg version="1.1" id="Calque_1" xmlns="http://www.w3.org/2000/svg" xmlns:xlink="http://www.w3.org/1999/xlink" x="0px" y="0px"
	 width="65.3px" height="29.9px" viewBox="0 0 65.3 29.9" style="enable-background:new 0 0 65.3 29.9;" xml:space="preserve">
<style type="text/css">
	.st0{clip-path:url(#SVGID_2_);}
	.st1{font-family:'TimesNewRomanPS-BoldMT';}
	.st2{font-size:7.3746px;}
	.st3{clip-path:url(#SVGID_4_);fill:none;stroke:#000000;stroke-width:0.737;}
	.st4{clip-path:url(#SVGID_6_);}
	.st5{clip-path:url(#SVGID_8_);fill:none;stroke:#000000;stroke-width:0.737;}
	.st6{clip-path:url(#SVGID_10_);fill:none;stroke:#000000;stroke-width:0.737;}
</style>
<g>
	<g>
		<defs>
			<rect id="SVGID_1_" width="65.3" height="29.9"/>
		</defs>
		<clipPath id="SVGID_2_">
			<use xlink:href="#SVGID_1_"  style="overflow:visible;"/>
		</clipPath>
		<g class="st0">
			<text transform="matrix(1 0 0 1 11.0873 7.637)" class="st1 st2">2020</text>
		</g>
	</g>
	<g>
		<defs>
			<rect id="SVGID_3_" width="65.3" height="29.9"/>
		</defs>
		<clipPath id="SVGID_4_">
			<use xlink:href="#SVGID_3_"  style="overflow:visible;"/>
		</clipPath>
		<rect x="0.4" y="19.8" class="st3" width="48.9" height="9.7"/>
	</g>
	<g>
		<defs>
			<rect id="SVGID_5_" width="65.3" height="29.9"/>
		</defs>
		<clipPath id="SVGID_6_">
			<use xlink:href="#SVGID_5_"  style="overflow:visible;"/>
		</clipPath>
		<g class="st4">
			<text transform="matrix(1 0 0 1 2.5395 26.889)" class="st1 st2">desa</text>
			<text transform="matrix(1 0 0 1 16.4695 26.889)" class="st1 st2">r</text>
			<text transform="matrix(1 0 0 1 19.6095 26.889)" class="st1 st2">chitectes</text>
		</g>
	</g>
	<g>
		<defs>
			<rect id="SVGID_7_" width="65.3" height="29.9"/>
		</defs>
		<clipPath id="SVGID_8_">
			<use xlink:href="#SVGID_7_"  style="overflow:visible;"/>
		</clipPath>
		<rect x="16" y="10.1" class="st5" width="48.9" height="9.7"/>
	</g>
</g>
<text transform="matrix(1 0 0 1 18.0351 17.137)" class="st1 st2">desa</text>
<text transform="matrix(1 0 0 1 31.9651 17.137)" class="st1 st2">r</text>
<text transform="matrix(1 0 0 1 35.1051 17.137)" class="st1 st2">chitextes</text>
<g>
	<g>
		<defs>
			<rect id="SVGID_9_" width="65.3" height="29.9"/>
		</defs>
		<clipPath id="SVGID_10_">
			<use xlink:href="#SVGID_9_"  style="overflow:visible;"/>
		</clipPath>
		<rect x="10.1" y="0.4" class="st6" width="16.4" height="9.7"/>
	</g>
</g>
</svg>
